/* XPM */
static const char * details2_deact_xpm[] = {
"32 32 2 1",
" 	c None",
".	c #a0a0a0",
"              ....              ",
"             ......             ",
"             .    .             ",
"            ..    .             ",
"             .    .             ",
"             .. ...             ",
"              ....              ",
"               ..               ",
"               ..               ",
"               ..               ",
"               ..               ",
"               ..               ",
"               ..               ",
"               ..               ",
"    ........................    ",
"   ..........................   ",
"   ..........................   ",
"   ...         ..         ...   ",
"   ...         ..         ...   ",
"   ...         ..         ...   ",
"   ...         ..         ...   ",
"   ...         ..         ...   ",
"   ...         ..         ...   ",
"   ...         ..         ...   ",
"   ...         ..         ...   ",
"   ...        ....        ...   ",
"  .. ..      ......      .. ..  ",
" ..   ..     .    .     ..   .. ",
" .    ..    ..    .     .     . ",
" ..   ..     .    .     ..   .. ",
"  .. ..      ......      .. ..  ",
"   ...        ....        ...   "};
