/* XPM */
static char * details_deact_xpm[] = {
"24 24 3 1",
" 	c None",
".	c #4E4E4E",
"+	c #4D4D4D",
"  ....................  ",
" ...................... ",
" ..                  .. ",
" ..                  .. ",
" ..                  .. ",
" ..                  .. ",
" ..   .   ........   .. ",
" ..   .  .........   .. ",
" ..                  .. ",
" ..                  .. ",
" ..                  .. ",
" ..   .  +........   .. ",
" ..   .  +........   .. ",
" ..                  .. ",
" ..                  .. ",
" ..                  .. ",
" ..   .  .........   .. ",
" ..   .   ........   .. ",
" ..                  .. ",
" ..                  .. ",
" ..                  .. ",
" ..                  .. ",
" ...................... ",
"  ....................  "};
