/* XPM */
static char * details_xpm[] = {
"24 24 24 1",
" 	c None",
".	c #555555",
"+	c #303030",
"@	c #333333",
"#	c #303030",
"$	c #323232",
"%	c #313131",
"&	c #353535",
"*	c #333333",
"=	c #343434",
"-	c #333333",
";	c #323232",
">	c #333333",
",	c #323232",
"'	c #333333",
")	c #333333",
"!	c #323232",
"~	c #333333",
"{	c #333333",
"]	c #333333",
"^	c #333333",
"/	c #333333",
"(	c #333333",
"_	c #333333",
"  ]__________________]  ",
" ^({{{{{{{{{{{{{{{{{{(^ ",
" _~                  ~_ ",
" _~                  ~_ ",
" _~                  ~_ ",
" _~                  ~_ ",
" _~   )   ))))))))   ~_ ",
" _~   _  ~________   ~_ ",
" _~                  ~_ ",
" _~                  ~_ ",
" _~                  ~_ ",
" _~   /  !////////   ~_ ",
" _~   /  !////////   ~_ ",
" _~                  ~_ ",
" _~                  ~_ ",
" _~                  ~_ ",
" _~   _  ~________   ~_ ",
" _~   )   ))))))))   ~_ ",
" _~                  ~_ ",
" _~                  ~_ ",
" _~                  ~_ ",
" _~                  ~_ ",
" ^({{{{{{{{{{{{{{{{{{(^ ",
"  ]__________________]  "};
