/* XPM */
static const char * filter_deact_xpm[] = {
"32 32 2 1",
" 	c None",
".	c #a0a0a0",
"                ....            ",
"                ....            ",
"                ....            ",
"                ....            ",
"                ....            ",
"                ....            ",
"                          .     ",
"                          ..    ",
"  ...........................   ",
"  ............................  ",
"                          ...   ",
"                          ..    ",
"                ....      .     ",
"                ....            ",
"          .     ....            ",
"          ..    ....            ",
"  ...........   ....            ",
"  ............  ....            ",
"          ...   ....            ",
"          ..    ....            ",
"          .     ....            ",
"                ....            ",
"                ....            ",
"                ....            ",
"                ....            ",
"                ....            ",
"                ....            ",
"                ....            ",
"                ....            ",
"                ....            ",
"                ....            ",
"                ....            "};
