/* XPM */
static const char * printer_xpm[] = {
"24 24 18 1",
" 	c None",
".	c #000000",
"+	c #000000",
"@	c #000000",
"#	c #000000",
"$	c #000000",
"%	c #000000",
"&	c #000000",
"*	c #000000",
"=	c #000000",
"-	c #000000",
";	c #000000",
">	c #000000",
",	c #000000",
"'	c #000000",
")	c #000000",
"!	c #000000",
"~	c #000000",
"    &~~~~~~~~~~~~~~&    ",
"    &~&&&&&&&&&&&&~&    ",
"    &~            ~&    ",
"    &~ &~~~~~~~~& ~&    ",
"    &~  &&&&&&&&  ~&    ",
"    &~            ~&    ",
"    &~ &~~~~~~~~& ~&    ",
"    &~  &&&&&&&&  ~&    ",
"    &~            ~&    ",
"    &~~~~~~~~~~~~~~&    ",
"     &&&&&&&&&&&&&&     ",
" ,~                  ~, ",
"=~~~~~~~~~~~~~~~~~~~~~~=",
"'~~~~~~~~~~~~~~~~~~~~~~'",
"~~~~~~~~~~~~~~~~~~~~~~~~",
"~~~~~~~~~~~~~~~~~~~>  >~",
"~~~~~~~~~~~~~~~~~~~)**)~",
"~~~~~~~~~~~~~~~~~~~~~~~~",
"~~~~~~~~~~~~~~~~~~~~~~~~",
"~~~~;&&&&&&&&&&&&&&;~~~~",
"~~~~&              &~~~~",
"~~~~-              -~~~~",
"'~~~!-&&&&&&&&&&&&-!~~~'",
" '~~~~~~~~~~~~~~~~~~~~' "};
